Results
version=1
nRows=29
nColumns=24
inDegrees=yes
endheader
time	pelvis_tilt	pelvis_list	pelvis_rotation	pelvis_tx	pelvis_ty	pelvis_tz	hip_flexion_r	hip_adduction_r	hip_rotation_r	knee_angle_r	ankle_angle_r	subtalar_angle_r	mtp_angle_r	hip_flexion_l	hip_adduction_l	hip_rotation_l	knee_angle_l	ankle_angle_l	subtalar_angle_l	mtp_angle_l	lumbar_extension	lumbar_bending	lumbar_rotation
      1.30833333	      0.96316240	      5.69474429	     -3.68594668	      0.17799078	      1.07602669	      0.33556681	     16.58871718	     -7.52956911	     -0.36789068	    -68.73147686	     -8.05270361	    -15.46403328	      3.17266151	      7.36512896	     10.44443335	     -3.22227147	     -8.26125289	     -1.80682787	     -7.61351336	     -4.51830265	      2.12682462	     -3.33768803	      1.50763794
      1.31250000	      0.92417738	      5.74109059	     -3.79961281	      0.18290820	      1.07637397	      0.33564410	     17.28261502	     -7.43574894	      0.01808920	    -68.73636547	     -7.32318012	    -15.36366022	      3.09093485	      7.09496157	     10.50162096	     -3.39175715	     -8.19249279	     -1.56708997	     -7.63982473	     -4.53889560	      2.15829556	     -3.48429990	      1.50595711
      1.31666667	      0.93241929	      5.80991782	     -3.87563373	      0.18776536	      1.07675234	      0.33537129	     17.91329701	     -7.41398252	      0.35596581	    -68.66544528	     -6.92918910	    -15.31128989	      3.04670749	      6.75616677	     10.62898925	     -3.33213580	     -8.08376714	     -1.44374441	     -7.59954747	     -4.55064910	      2.11339902	     -3.48452646	      1.48099601
      1.32083333	      0.93440328	      5.85056523	     -3.96468557	      0.19261614	      1.07713475	      0.33531943	     18.52857923	     -7.32425483	      0.71327712	    -68.51626213	     -6.41362861	    -15.23309959	      3.00546658	      6.42601790	     10.70393846	     -3.32253947	     -7.98808415	     -1.26882296	     -7.61515646	     -4.56419098	      2.07962356	     -3.52555393	      1.45541047
      1.32500000	      0.91642919	      5.87071564	     -4.02215441	      0.19751589	      1.07750906	      0.33533862	     19.12795834	     -7.20092149	      1.04518835	    -68.30203022	     -5.74453572	    -14.94127547	      2.93556161	      6.12298710	     10.74749696	     -3.40893870	     -7.92010853	     -1.07287035	     -7.65984351	     -4.59460681	      2.07505763	     -3.63581698	      1.44391888
      1.32916667	      0.90951173	      5.90716238	     -4.08388869	      0.20239521	      1.07787343	      0.33523475	     19.70806401	     -7.10787486	      1.37399378	    -68.02303364	     -5.23251575	    -14.69582927	      2.86792138	      5.79359639	     10.82677929	     -3.37496552	     -7.81333192	     -0.92397002	     -7.67559321	     -4.62790766	      2.05662661	     -3.66566007	      1.41952980
      1.33333333	      0.91360886	      5.90230072	     -4.07433377	      0.20726752	      1.07828962	      0.33514836	     20.22607687	     -6.97573235	      1.62089077	    -67.63107248	     -5.06327594	    -14.67092226	      2.85564607	      5.44663850	     10.85723470	     -3.26001269	     -7.71400510	     -0.88013609	     -7.65095048	     -4.63389254	      1.98048871	     -3.65706317	      1.39598727
      1.33750000	      0.91735624	      5.91030303	     -4.11294115	      0.21216898	      1.07867982	      0.33509475	     20.74143790	     -6.84195356	      1.91770648	    -67.19800402	     -4.75941625	    -14.62402014	      2.84394504	      5.08832421	     10.90395492	     -3.16087320	     -7.58502437	     -0.77669274	     -7.65764902	     -4.64092445	      1.92027221	     -3.66320385	      1.36524264
      1.34166667	      0.97612331	      5.99614783	     -4.24370086	      0.21701481	      1.07903435	      0.33494836	     21.23303313	     -6.79265681	      2.29484139	    -66.78803749	     -3.98403768	    -14.35200826	      2.81624617	      4.68092610	     11.06172797	     -3.17660394	     -7.43440162	     -0.50405055	     -7.76712775	     -4.66507993	      1.93590939	     -3.71044684	      1.31219499
      1.34583333	      0.96230694	      6.00374218	     -4.24601973	      0.22190602	      1.07937720	      0.33491718	     21.71830918	     -6.65585342	      2.56654845	    -66.24940781	     -3.34830418	    -13.78563413	      2.76490066	      4.35618742	     11.10481012	     -3.17881119	     -7.33806327	     -0.38203840	     -7.85211797	     -4.71807649	      1.86183289	     -3.79809110	      1.26754459
      1.35000000	      0.94719246	      6.00408802	     -4.22808439	      0.22678214	      1.07970374	      0.33486095	     22.18367794	     -6.51588009	      2.80084522	    -65.62176074	     -3.20227147	    -13.75614456	      2.75527896	      4.01823410	     11.14119295	     -3.06385073	     -7.21337738	     -0.34699787	     -7.83558418	     -4.72654615	      1.79217202	     -3.80690921	      1.24689339
      1.35416667	      0.96956963	      6.03920318	     -4.29078288	      0.23170706	      1.08002686	      0.33478756	     22.61485470	     -6.40320488	      3.10787846	    -64.98926281	     -2.56785683	    -13.42708714	      2.71212942	      3.63152303	     11.23166170	     -3.03238316	     -7.05988515	     -0.13556052	     -7.97521232	     -4.77952585	      1.78628622	     -3.84672001	      1.18506909
      1.35833333	      0.97990833	      6.06995594	     -4.31265436	      0.23661599	      1.08033261	      0.33469199	     23.02840045	     -6.29457668	      3.37176517	    -64.26630174	     -2.33849957	    -13.32196567	      2.69216011	      3.24988835	     11.31428276	     -2.89813747	     -6.89208604	     -0.08308218	     -7.97121678	     -4.80395183	      1.76815890	     -3.86187462	      1.15235708
      1.36250000	      0.94804507	      6.07008808	     -4.28639062	      0.24149302	      1.08058792	      0.33468873	     23.44960028	     -6.14586888	      3.59279283	    -63.47147762	     -2.15720800	    -13.28105353	      2.68391767	      2.92838986	     11.34460795	     -2.82643028	     -6.77059698	     -0.02423253	     -7.98999284	     -4.81479344	      1.69407708	     -3.90224593	      1.13178033
      1.36666667	      0.99423156	      6.10540254	     -4.35183819	      0.24648598	      1.08090455	      0.33461979	     23.78569133	     -6.03231818	      3.87986403	    -62.64945760	     -1.76652978	    -13.15303717	      2.66694124	      2.49041996	     11.44101752	     -2.74170576	     -6.56641412	      0.13693944	     -8.06870294	     -4.84201787	      1.73758289	     -3.92049845	      1.08230981
      1.37083333	      1.01376916	      6.12034567	     -4.37137895	      0.25142079	      1.08117639	      0.33458276	     24.11766894	     -5.89989972	      4.12917714	    -61.76030525	     -1.42046374	    -12.98478526	      2.64503677	      2.09346052	     11.50245914	     -2.67353660	     -6.39807148	      0.25896690	     -8.15309217	     -4.87963256	      1.68435589	     -3.95570184	      1.02391164
      1.37500000	      1.01229333	      6.14676406	     -4.37179676	      0.25634609	      1.08139321	      0.33453358	     24.45081185	     -5.78432354	      4.35794293	    -60.81598128	     -1.18189522	    -12.87927213	      2.62279862	      1.72251270	     11.57467899	     -2.59451018	     -6.23525410	      0.34270858	     -8.21238171	     -4.91681821	      1.63298927	     -4.00295573	      0.97343687
      1.37916667	      0.94723295	      6.17569341	     -4.33762884	      0.26125794	      1.08149792	      0.33449156	     24.82832400	     -5.67063249	      4.55427299	    -59.81517067	     -1.06134535	    -12.87552233	      2.61580031	      1.42822101	     11.63901907	     -2.53483421	     -6.08518896	      0.38316452	     -8.22186812	     -4.92676671	      1.54662595	     -4.06192053	      0.95618809
      1.38333333	      0.98327566	      6.19622549	     -4.37605986	      0.26625642	      1.08172635	      0.33445566	     25.07551284	     -5.54459214	      4.80406197	    -58.75838016	     -0.86051547	    -12.86601941	      2.59655055	      0.99519683	     11.71029762	     -2.45355050	     -5.88763904	      0.50631928	     -8.29063012	     -4.95784702	      1.60641295	     -4.08376381	      0.90331584
      1.38750000	      0.93478564	      6.23098268	     -4.36347549	      0.27117193	      1.08179900	      0.33447101	     25.39356028	     -5.42971339	      5.02393974	    -57.65330699	     -0.74007392	    -12.88614368	      2.58537882	      0.67569642	     11.77868065	     -2.38498957	     -5.73018040	      0.56770957	     -8.31714926	     -4.97427641	      1.54971784	     -4.14760586	      0.87510396
      1.39166667	      0.95315500	      6.26156976	     -4.39880695	      0.27621594	      1.08195201	      0.33440963	     25.61386904	     -5.32136025	      5.24429817	    -56.49470223	     -0.62396073	    -12.94885389	      2.56509401	      0.25629920	     11.86351411	     -2.32239107	     -5.51335793	      0.68047406	     -8.38180828	     -5.00458039	      1.60177830	     -4.18722603	      0.82201455
      1.39583333	      0.95586163	      6.28412436	     -4.41093439	      0.28123272	      1.08206796	      0.33438327	     25.82067505	     -5.20496710	      5.44906483	    -55.27628373	     -0.56115026	    -13.05862805	      2.53921091	     -0.13937508	     11.93062977	     -2.26800819	     -5.31868248	      0.77714355	     -8.44355258	     -5.04231352	      1.59339143	     -4.22289448	      0.75608004
      1.40000000	      1.01470012	      6.28388739	     -4.41394811	      0.28621722	      1.08225391	      0.33435078	     25.93635441	     -5.07755811	      5.61942655	    -53.98982714	     -0.64327633	    -13.38726451	      2.46636714	     -0.59439895	     11.97622939	     -2.22942696	     -5.13003743	      0.89562571	     -8.55254652	     -5.15110325	      1.43878096	     -4.19443726	      0.57618198
      1.40416667	      0.92152008	      6.35474210	     -4.40349160	      0.29116751	      1.08213022	      0.33430005	     26.22385291	     -5.01446851	      5.80533960	    -52.71051855	     -0.56984313	    -13.43438918	      2.45727313	     -0.86893885	     12.08702201	     -2.16654091	     -4.95133539	      0.91993432	     -8.53902260	     -5.16202979	      1.39185689	     -4.31547427	      0.57412590
      1.40833333	      0.93810682	      6.38426439	     -4.43525855	      0.29622678	      1.08217935	      0.33432750	     26.34470027	     -4.90660848	      6.01945316	    -51.34132468	     -0.59014564	    -13.61582651	      2.43108562	     -1.28935912	     12.16012294	     -2.10283317	     -4.74888619	      1.00772803	     -8.56467526	     -5.19427262	      1.56515675	     -4.40147603	      0.54525834
      1.41250000	      0.82482249	      6.45067278	     -4.42984588	      0.30123289	      1.08196972	      0.33429628	     26.60278085	     -4.84117775	      6.18969768	    -49.96529582	     -0.55371597	    -13.71659913	      2.41904759	     -1.54436409	     12.26244904	     -2.07745786	     -4.57393239	      1.05557711	     -8.57545014	     -5.20690713	      1.49595039	     -4.48393438	      0.52931808
      1.41666667	      0.89736157	      6.42285567	     -4.46036994	      0.30644022	      1.08211096	      0.33429522	     26.58371892	     -4.69340185	      6.31321889	    -48.44590429	     -1.02359356	    -14.54598438	      2.32068191	     -2.04169067	     12.28136522	     -2.09720241	     -4.35336391	      1.23424459	     -8.63988082	     -5.32240362	      1.52991780	     -4.35496447	      0.33180156
      1.42083333	      0.87158447	      6.48296321	     -4.45996815	      0.31143264	      1.08198596	      0.33427232	     26.69306207	     -4.64108771	      6.46038946	    -46.96790384	     -1.03850080	    -14.73073310	      2.28447378	     -2.39773279	     12.38321390	     -2.04328614	     -4.17404826	      1.27674069	     -8.61377128	     -5.36641269	      1.61055844	     -4.54051408	      0.31505990
      1.42500000	      0.87166265	      6.49746968	     -4.48277476	      0.31655107	      1.08191032	      0.33428705	     26.73178737	     -4.53958097	      6.57280999	    -45.40635517	     -1.37439342	    -15.34399088	      2.17468961	     -2.79454177	     12.43893941	     -2.07089256	     -3.97813126	      1.40376724	     -8.59996701	     -5.49665291	      1.54232403	     -4.49202482	      0.15811662
